<?xml version="1.0" encoding="UTF-8"?>
<svg width="21px" height="23px" viewBox="0 0 21 23" version="1.1" xmlns="http://www.w3.org/2000/svg" xmlns:xlink="http://www.w3.org/1999/xlink">
    <!-- Generator: Sketch 55 (78076) - https://sketchapp.com -->
    <title>Path</title>
    <desc>Created with Sketch.</desc>
    <g id="Page-2" stroke="none" stroke-width="1" fill="none" fill-rule="evenodd">
        <g id="Group-26-Copy" transform="translate(-68.000000, 0.000000)" fill="#FFFFFF" fill-rule="nonzero">
            <g id="facebook" transform="translate(68.000000, 0.364130)">
                <path d="M18.1701359,0.530026357 L2.82981274,0.530026357 C1.26698142,0.530026357 0,1.84619132 0,3.4698101 L0,19.4063893 C0,21.0300081 1.26693005,22.346173 2.82981274,22.346173 L10.3955869,22.346173 L10.4084812,14.5502625 L8.45887202,14.5502625 C8.20550656,14.5502625 7.99986545,14.3374304 7.99888939,14.0742187 L7.98953973,11.5612733 C7.98856367,11.2966208 8.19482124,11.0815472 8.44957374,11.0815472 L10.3956383,11.0815472 L10.3956383,8.65340374 C10.3956383,5.83556618 12.0522231,4.30123229 14.4718838,4.30123229 L16.4574018,4.30123229 C16.7114351,4.30123229 16.9174358,4.51518514 16.9174358,4.77914394 L16.9174358,6.89807239 C16.9174358,7.16192446 16.7115892,7.37582394 16.4576587,7.37598405 L15.2391722,7.3765711 C13.9232849,7.3765711 13.668481,8.02616804 13.668481,8.97948305 L13.668481,11.0816005 L16.5599398,11.0816005 C16.8354465,11.0816005 17.0492043,11.3315235 17.0167374,11.6157622 L16.7300317,14.1287076 C16.7025992,14.3691844 16.5063077,14.5503692 16.2732341,14.5503692 L13.6813753,14.5503692 L13.668481,22.3462797 L18.1702386,22.3462797 C19.73307,22.3462797 21,21.0301148 21,19.4065494 L21,3.4698101 C20.9999486,1.84619132 19.7330186,0.530026357 18.1701359,0.530026357 Z" id="Path"></path>
            </g>
        </g>
    </g>
</svg>