<?xml version="1.0" encoding="UTF-8"?>
<svg width="22px" height="23px" viewBox="0 0 22 23" version="1.1" xmlns="http://www.w3.org/2000/svg" xmlns:xlink="http://www.w3.org/1999/xlink">
    <!-- Generator: Sketch 55 (78076) - https://sketchapp.com -->
    <title>instagram</title>
    <desc>Created with Sketch.</desc>
    <g id="Page-2" stroke="none" stroke-width="1" fill="none" fill-rule="evenodd">
        <g id="Group-26-Copy" transform="translate(-34.000000, 0.000000)" fill="#FFFFFF" fill-rule="nonzero">
            <g id="instagram" transform="translate(34.000000, 0.364130)">
                <path d="M15.4460814,0.516059779 L6.55391863,0.516059779 C2.94007266,0.516059779 0,3.35475063 0,6.84398122 L0,15.4295177 C0,18.9187482 2.94007266,21.7574391 6.55391863,21.7574391 L15.4460814,21.7574391 C19.0599273,21.7574391 22,18.9187482 22,15.4295177 L22,6.84398122 C21.9999601,3.35475063 19.0598874,0.516059779 15.4460814,0.516059779 Z M19.7597911,15.4580838 C19.7597911,17.7731623 17.8159863,19.6499393 15.4182265,19.6499393 L6.52433228,19.6499393 C4.1265724,19.6499393 2.18276762,17.7731623 2.18276762,15.4580838 L2.18276762,6.87087561 C2.18276762,4.55575854 4.1265724,2.67902007 6.52433228,2.67902007 L15.4182265,2.67902007 C17.8159863,2.67902007 19.7597911,4.55575854 19.7597911,6.87087561 L19.7597911,15.4580838 L19.7597911,15.4580838 Z" id="Shape"></path>
                <path d="M10.6206897,5.31034483 C7.27425669,5.31034483 4.55172414,8.03288694 4.55172414,11.3792891 C4.55172414,14.7256912 7.27425669,17.4482759 10.6206897,17.4482759 C13.9671226,17.4482759 16.6896552,14.7257338 16.6896552,11.3792891 C16.6896552,8.03284435 13.9671226,5.31034483 10.6206897,5.31034483 Z M10.6206897,15.1724138 C8.5257996,15.1724138 6.82758621,13.4742004 6.82758621,11.3793103 C6.82758621,9.28442029 8.52584316,7.5862069 10.6206897,7.5862069 C12.7155797,7.5862069 14.4137931,9.28442029 14.4137931,11.3793103 C14.4137931,13.4741568 12.7155361,15.1724138 10.6206897,15.1724138 Z" id="Shape"></path>
            </g>
        </g>
    </g>
</svg>