<?xml version="1.0" encoding="UTF-8"?>
<svg width="21px" height="23px" viewBox="0 0 21 23" version="1.1" xmlns="http://www.w3.org/2000/svg" xmlns:xlink="http://www.w3.org/1999/xlink">
    <!-- Generator: Sketch 55 (78076) - https://sketchapp.com -->
    <title>linkedin</title>
    <desc>Created with Sketch.</desc>
    <g id="Page-2" stroke="none" stroke-width="1" fill="none" fill-rule="evenodd">
        <g id="Group-26-Copy" fill="#FFFFFF" fill-rule="nonzero">
            <g id="linkedin" transform="translate(0.000000, 0.364130)">
                <path d="M19.1003796,0.472975302 L1.89962042,0.472975302 C0.8505,0.472975302 0,1.35884654 0,2.45159858 L0,20.3676588 C0,21.4604681 0.8505,22.3463393 1.89962042,22.3463393 L19.1003246,22.3463393 C20.1495,22.3463393 21,21.4604681 21,20.3676588 L21,2.45159858 C21,1.35884654 20.1495,0.472975302 19.1003796,0.472975302 Z M6.49829058,19.3598807 C6.49829058,19.6779034 6.25079843,19.9356885 5.94547382,19.9356885 L3.5922644,19.9356885 C3.28693979,19.9356885 3.03944764,19.6779034 3.03944764,19.3598807 L3.03944764,9.08506841 C3.03944764,8.76704573 3.28693979,8.50926069 3.5922644,8.50926069 L5.94547382,8.50926069 C6.25079843,8.50926069 6.49829058,8.76704573 6.49829058,9.08506841 L6.49829058,19.3598807 Z M4.76886911,7.54070584 C3.53421204,7.54070584 2.53330366,6.49817092 2.53330366,5.212166 C2.53330366,3.92616107 3.53421204,2.88362615 4.76886911,2.88362615 C6.00352618,2.88362615 7.00443455,3.92616107 7.00443455,5.212166 C7.00443455,6.49817092 6.00358115,7.54070584 4.76886911,7.54070584 Z M18.7960995,19.4062614 C18.7960995,19.6986316 18.5685079,19.9356885 18.2878115,19.9356885 L15.762644,19.9356885 C15.4819476,19.9356885 15.254356,19.6986316 15.254356,19.4062614 L15.254356,14.5867921 C15.254356,13.867834 15.4568246,11.4362833 13.4505,11.4362833 C11.8942461,11.4362833 11.5785864,13.1006058 11.5152016,13.8475067 L11.5152016,19.4062614 C11.5152016,19.6986316 11.2876649,19.9356885 11.0069136,19.9356885 L8.5646466,19.9356885 C8.28395026,19.9356885 8.05635864,19.6986316 8.05635864,19.4062614 L8.05635864,9.03868771 C8.05635864,8.74631756 8.28395026,8.50926069 8.5646466,8.50926069 L11.0069136,8.50926069 C11.2876099,8.50926069 11.5152016,8.74631756 11.5152016,9.03868771 L11.5152016,9.93509482 C12.0922618,9.03307622 12.9498534,8.33685048 14.7758089,8.33685048 C18.8192435,8.33685048 18.7960995,12.2715366 18.7960995,14.4334495 L18.7960995,19.4062614 L18.7960995,19.4062614 Z" id="Shape"></path>
            </g>
        </g>
    </g>
</svg>